<?xml version="1.0" standalone="no"?>
<!DOCTYPE svg PUBLIC "-//W3C//DTD SVG 20010904//EN"
 "http://www.w3.org/TR/2001/REC-SVG-20010904/DTD/svg10.dtd">
<svg version="1.0" xmlns="http://www.w3.org/2000/svg"
 width="197.000000pt" height="197.000000pt" viewBox="0 0 197.000000 197.000000"
 preserveAspectRatio="xMidYMid meet">
<metadata>
Created by potrace 1.11, written by Peter Selinger 2001-2013
</metadata>
<g transform="translate(0.000000,197.000000) scale(0.100000,-0.100000)"
fill="#000000" stroke="none">
<path d="M828 1904 c-475 -75 -799 -518 -668 -914 12 -36 23 -73 25 -83 2 -10
7 -27 10 -38 4 -11 8 -49 10 -86 9 -140 57 -244 164 -351 125 -125 336 -224
508 -238 l83 -7 15 36 c20 48 19 63 -4 86 -15 15 -28 18 -58 14 -58 -8 -70 -6
-106 18 -110 76 -197 171 -197 215 0 36 42 57 108 57 39 0 94 -13 177 -41 66
-23 131 -43 145 -46 14 -2 48 -9 75 -15 62 -12 241 -12 315 0 123 20 247 112
316 234 56 101 73 159 81 275 4 67 2 77 -16 94 -19 18 -20 17 -45 -7 -22 -23
-25 -32 -20 -70 6 -38 1 -56 -30 -120 -38 -79 -108 -156 -114 -125 -2 9 8 38
22 65 36 69 39 109 14 160 -18 37 -26 43 -52 43 -17 0 -53 11 -79 24 -27 12
-60 22 -75 20 -15 -1 -34 -2 -43 -3 -9 -1 -34 -13 -55 -28 -39 -26 -40 -26
-96 -11 -32 8 -60 12 -63 10 -12 -12 -3 -80 15 -121 11 -24 20 -57 20 -74 0
-17 12 -50 26 -74 14 -25 23 -51 20 -59 -20 -53 -205 40 -387 197 -173 149
-262 171 -424 106 l-86 -34 -19 24 c-44 56 -48 211 -10 336 22 71 80 167 131
216 43 42 149 112 214 141 59 27 155 61 155 55 0 -3 12 0 27 6 41 15 181 12
240 -6 71 -21 133 -79 134 -126 2 -53 -2 -72 -19 -101 -17 -29 -73 -55 -93
-43 -17 11 -85 8 -111 -6 -53 -27 -73 -86 -47 -142 17 -37 78 -67 135 -67 168
0 317 204 279 381 -23 106 -128 202 -245 224 -66 12 -225 12 -302 -1z"/>
<path d="M1476 1688 c28 -161 -57 -344 -202 -435 -47 -30 -67 -69 -43 -84 23
-14 52 -10 88 12 18 11 48 21 67 23 18 1 35 4 38 7 2 2 6 35 9 72 10 119 84
208 184 223 69 10 78 19 51 58 -37 52 -71 87 -121 127 -66 52 -81 52 -71 -3z"/>
<path d="M925 1699 c-142 -14 -326 -105 -414 -205 -36 -41 -77 -114 -87 -153
-2 -9 -7 -32 -12 -51 -11 -45 -8 -108 6 -122 8 -8 32 -7 84 3 40 7 94 13 120
12 67 -1 162 -49 250 -126 100 -87 180 -147 197 -147 10 0 12 12 6 58 -8 68
-8 59 -6 99 1 23 12 46 37 73 20 22 35 43 32 46 -3 2 -27 7 -54 10 -78 8 -129
31 -173 80 -50 53 -61 80 -61 145 0 121 88 199 226 199 34 0 54 5 57 13 17 45
-89 78 -208 66z"/>
<path d="M1589 1397 c-41 -27 -59 -60 -59 -107 0 -76 68 -137 143 -127 54 7
89 35 107 85 41 117 -89 218 -191 149z"/>
<path d="M985 430 c-2 -4 13 -22 34 -41 39 -32 54 -66 66 -141 6 -36 8 -38 44
-38 84 0 284 89 363 161 35 31 40 40 28 48 -8 5 -17 8 -21 5 -13 -8 -150 -18
-249 -18 -95 0 -152 6 -223 23 -20 5 -39 5 -42 1z"/>
</g>
</svg>
